# xmcd
#
# Track frame offsets: 
#        150
#        11932
#        22634
#        35827
#        52774
#        62111
#        75318
#        87836
#        100035
#        112917
#        134562
#        150006
#        160749
#        171324
#        183324
#        195635
#        204231
#        217586
#        232111
#        245821
#
# Disc length: 3463 seconds
#
# Revision: 1
# Processed by: cddbd v1.5.2PL0 Copyright (c) Steve Scherf et al.
# Submitted via: ExactAudioCopy v0.99pb5
#
DISCID=f30d8514
DTITLE=Various Artist - I love christmas CD2
DYEAR=2009
DGENRE=Retro
TTITLE0=Elvis Presley - O little town of Bethlehem
TTITLE1=Kitty Wells - Away in a manger
TTITLE2=Mahalia Jackson - Hark! The Herald angels sing
TTITLE3=Glen Campbell - O Holy night
TTITLE4=Gene Autry - Frosty the snowman
TTITLE5=Billy Holiday - God bless the child
TTITLE6=Jonny Adams - The bells of st.Mary's
TTITLE7=Rosemary Clooney - It came upon a midnight clear
TTITLE8=Louis Armstrong - Zat you Santa Claus
TTITLE9=Ann Phillips - Ave Maria
TTITLE10=Bill Pinkney and  The original Drifters - We wish you a Merry
TTITLE10=christmas
TTITLE11=The crickets - Deck the halls
TTITLE12=The platters - I saw mommy kissing Santa Claus
TTITLE13=Lou Monte - All because it's christmas
TTITLE14=The miracles - Let it snow
TTITLE15=Elvis Presley - I'll be home for christmas
TTITLE16=The three degrees - O christmas tree
TTITLE17=Brook Benton - Child
TTITLE18=Ann Phillips - Amazing Grace
TTITLE19=The cranberry singers - Mary's boy child
EXTD=
EXTT0=
EXTT1=
EXTT2=
EXTT3=
EXTT4=
EXTT5=
EXTT6=
EXTT7=
EXTT8=
EXTT9=
EXTT10=
EXTT11=
EXTT12=
EXTT13=
EXTT14=
EXTT15=
EXTT16=
EXTT17=
EXTT18=
EXTT19=
PLAYORDER=
